<svg height="512pt" viewBox="0 0 512 512" width="512pt" xmlns="http://www.w3.org/2000/svg"><path d="m34.710938 112.8125h433.898437c19.171875 0 34.710937 15.542969 34.710937 34.714844v329.761718c0 19.167969-15.539062 34.710938-34.710937 34.710938h-433.898437c-19.167969 0-34.710938-15.542969-34.710938-34.710938v-329.761718c0-19.171875 15.542969-34.714844 34.710938-34.714844zm0 0" fill="#95a5a5"/><path d="m60.746094 112.8125h381.832031v399.1875h-381.832031zm0 0" fill="#2c3e50"/><path d="m130.167969 182.238281h-69.421875v52.066407h381.832031v-52.066407zm0 0" fill="#7f8c8d"/><path d="m407.863281 112.8125h-17.355469c0-52.71875-42.738281-95.457031-95.457031-95.457031s-95.457031 42.738281-95.457031 95.457031v52.070312c0 4.792969-3.886719 8.675782-8.679688 8.675782-4.792968 0-8.675781-3.882813-8.675781-8.675782v-52.070312c0-62.304688 50.507813-112.8125 112.8125-112.8125 62.304688 0 112.8125 50.507812 112.8125 112.8125zm0 0" fill="#95a5a5"/><path d="m503.320312 442.578125h-26.03125c-4.792968 0-8.679687-3.886719-8.679687-8.679687 0-4.792969 3.886719-8.679688 8.679687-8.679688h26.03125c4.792969 0 8.679688 3.886719 8.679688 8.679688 0 4.792968-3.886719 8.679687-8.679688 8.679687zm0 0" fill="#7f8c8d"/><path d="m503.320312 407.863281h-26.03125c-4.792968 0-8.679687-3.882812-8.679687-8.675781s3.886719-8.679688 8.679687-8.679688h26.03125c4.792969 0 8.679688 3.886719 8.679688 8.679688s-3.886719 8.675781-8.679688 8.675781zm0 0" fill="#7f8c8d"/><g fill="#ff5364"><path d="m138.847656 477.289062h-34.710937c-4.792969 0-8.679688-3.886718-8.679688-8.679687v-138.847656c0-4.792969 3.886719-8.675781 8.679688-8.675781s8.675781 3.882812 8.675781 8.675781v130.171875h26.035156c4.792969 0 8.679688 3.882812 8.679688 8.675781s-3.886719 8.679687-8.679688 8.679687zm0 0"/><path d="m251.660156 477.289062h-69.421875c-4.792969 0-8.679687-3.886718-8.679687-8.679687s3.886718-8.675781 8.679687-8.675781h69.421875c4.792969 0 8.679688 3.882812 8.679688 8.675781s-3.886719 8.679687-8.679688 8.679687zm0 0"/><path d="m399.1875 477.289062h-86.78125c-4.792969 0-8.675781-3.886718-8.675781-8.679687s3.882812-8.675781 8.675781-8.675781h78.101562v-130.171875c0-4.792969 3.886719-8.675781 8.679688-8.675781s8.675781 3.882812 8.675781 8.675781v138.847656c0 4.792969-3.882812 8.679687-8.675781 8.679687zm0 0"/><path d="m216.949219 477.289062c-4.792969 0-8.679688-3.886718-8.679688-8.679687v-86.777344h-104.132812c-4.792969 0-8.679688-3.886719-8.679688-8.679687 0-4.792969 3.886719-8.679688 8.679688-8.679688h112.8125c4.792969 0 8.679687 3.886719 8.679687 8.679688v95.457031c0 4.792969-3.886718 8.679687-8.679687 8.679687zm0 0"/><path d="m286.371094 381.832031h-69.421875c-4.792969 0-8.679688-3.886719-8.679688-8.679687 0-4.792969 3.886719-8.679688 8.679688-8.679688h60.746093v-34.710937c0-4.792969 3.886719-8.675781 8.675782-8.675781 4.792968 0 8.679687 3.882812 8.679687 8.675781v43.390625c0 4.792968-3.886719 8.679687-8.679687 8.679687zm0 0"/></g><path d="m190.914062 338.441406c-4.792968 0-8.675781-3.886718-8.675781-8.679687v-26.03125c0-4.792969 3.882813-8.679688 8.675781-8.679688 4.792969 0 8.679688 3.886719 8.679688 8.679688v26.03125c0 4.792969-3.886719 8.679687-8.679688 8.679687zm0 0" fill="#7f8c8d"/><path d="m147.527344 164.882812h86.777344c9.585937 0 17.355468 7.769532 17.355468 17.355469v52.066407c0 9.585937-7.769531 17.355468-17.355468 17.355468h-86.777344c-9.585938 0-17.359375-7.769531-17.359375-17.355468v-52.066407c0-9.585937 7.773437-17.355469 17.359375-17.355469zm0 0" fill="#ecf0f1"/><path d="m216.949219 251.660156v34.710938c0 9.585937-7.769531 17.359375-17.355469 17.359375h-17.355469c-9.585937 0-17.355469-7.773438-17.355469-17.359375v-34.710938zm0 0" fill="#95a5a5"/><path d="m164.882812 216.949219c-2.308593.023437-4.53125-.882813-6.164062-2.515625-1.632812-1.632813-2.539062-3.855469-2.515625-6.164063.015625-1.132812.25-2.253906.695313-3.296875.4375-1.050781 1.054687-2.019531 1.820312-2.863281.414062-.375.847656-.722656 1.304688-1.039063.480468-.328124 1.007812-.59375 1.558593-.78125.492188-.253906 1.019531-.429687 1.5625-.523437 1.691407-.351563 3.453125-.171875 5.035157.523437 2.179687.789063 3.894531 2.503907 4.683593 4.683594.445313 1.042969.683594 2.164063.695313 3.296875-.035156 2.296875-.933594 4.5-2.515625 6.164063-.84375.761718-1.8125 1.378906-2.863281 1.820312-1.03125.488282-2.160157.726563-3.296876.695313zm0 0" fill="#95a5a5"/><path d="m216.949219 216.949219c-2.308594.023437-4.53125-.882813-6.164063-2.515625-1.628906-1.632813-2.539062-3.855469-2.515625-6.164063.015625-1.132812.25-2.253906.695313-3.296875.441406-1.050781 1.058594-2.019531 1.824218-2.863281.410157-.375.84375-.722656 1.300782-1.039063.484375-.328124 1.007812-.59375 1.5625-.78125.492187-.253906 1.015625-.429687 1.5625-.523437 1.691406-.351563 3.449218-.171875 5.03125.523437 2.179687.789063 3.898437 2.503907 4.6875 4.683594.445312 1.042969.679687 2.164063.695312 3.296875-.035156 2.296875-.933594 4.5-2.519531 6.164063-.84375.761718-1.8125 1.378906-2.863281 1.820312-1.027344.488282-2.160156.726563-3.296875.695313zm0 0" fill="#95a5a5"/></svg>