<?xml version="1.0" standalone="no"?>
<!DOCTYPE svg PUBLIC "-//W3C//DTD SVG 20010904//EN"
 "http://www.w3.org/TR/2001/REC-SVG-20010904/DTD/svg10.dtd">
<svg version="1.0" xmlns="http://www.w3.org/2000/svg"
 width="362.000000pt" height="362.000000pt" viewBox="0 0 362.000000 362.000000"
 preserveAspectRatio="xMidYMid meet">
<metadata>
Created by potrace 1.11, written by Peter Selinger 2001-2013
</metadata>
<g transform="translate(0.000000,362.000000) scale(0.100000,-0.100000)"
fill="#000000" stroke="none">
<path d="M1657 3544 c-3 -6 -26 -10 -51 -9 -25 0 -42 -3 -39 -9 3 -5 -6 -7
-21 -4 -14 3 -29 1 -32 -4 -3 -5 -13 -3 -22 4 -12 10 -14 10 -8 1 5 -9 -2 -13
-23 -13 -17 0 -31 -4 -31 -10 0 -5 -6 -7 -14 -4 -8 3 -17 0 -21 -5 -3 -6 -10
-9 -15 -6 -5 3 -19 1 -31 -6 -17 -8 -20 -8 -14 1 4 7 -4 4 -19 -5 -14 -10 -26
-14 -26 -10 0 4 -7 2 -15 -5 -8 -6 -19 -9 -25 -5 -5 3 -10 1 -10 -5 0 -6 -4
-9 -9 -5 -5 3 -12 1 -16 -5 -4 -6 -11 -8 -16 -5 -5 4 -9 2 -9 -4 0 -5 -9 -8
-20 -6 -11 2 -18 0 -15 -5 3 -4 -9 -12 -27 -15 -18 -4 -36 -12 -39 -17 -3 -5
-15 -10 -26 -11 -18 -1 -30 -27 -12 -27 4 0 6 -9 4 -20 -2 -11 0 -20 6 -20 5
0 9 -7 9 -15 0 -8 5 -15 10 -15 6 0 10 -7 10 -15 0 -18 20 -57 35 -67 6 -4 6
-8 2 -8 -5 0 -1 -10 7 -22 9 -12 16 -30 16 -38 0 -9 9 -26 20 -38 12 -12 18
-22 15 -22 -3 0 13 -33 34 -74 22 -41 37 -77 34 -80 -4 -3 -1 -6 5 -6 23 0
-12 -39 -40 -46 -16 -3 -26 -9 -23 -14 3 -4 -6 -11 -20 -14 -14 -4 -25 -11
-25 -16 0 -6 -7 -10 -15 -10 -8 0 -15 -4 -15 -10 0 -5 -6 -10 -14 -10 -7 0
-20 -8 -27 -17 -12 -15 -12 -16 1 -8 9 5 12 5 7 -1 -5 -5 -13 -10 -18 -10 -5
-1 -13 -2 -19 -3 -5 0 -10 -8 -10 -16 0 -8 -6 -15 -13 -15 -11 0 -70 -59 -164
-164 -7 -8 -9 -16 -6 -20 4 -3 -2 -6 -12 -6 -10 0 -15 -3 -12 -6 4 -4 -5 -20
-18 -36 -14 -16 -25 -38 -25 -49 0 -10 -6 -18 -12 -16 -7 1 -12 -6 -10 -15 2
-10 -2 -18 -8 -18 -5 0 -10 -6 -10 -14 0 -8 -7 -17 -16 -20 -8 -3 -13 -10 -9
-16 3 -5 0 -20 -7 -32 -7 -13 -13 -27 -13 -33 0 -11 -46 -8 -55 4 -3 3 -16 8
-30 10 -14 1 -28 8 -31 13 -4 6 -18 11 -33 11 -14 0 -23 3 -20 8 3 5 -2 9 -11
9 -9 0 -34 9 -56 19 -21 11 -36 14 -32 8 3 -7 -3 -4 -14 6 -11 10 -24 17 -29
16 -5 -1 -29 7 -54 19 -24 11 -48 18 -52 16 -4 -3 -8 0 -8 5 0 6 -9 11 -19 11
-11 0 -23 4 -26 10 -15 24 -64 -39 -57 -72 1 -5 -2 -8 -7 -8 -6 0 -8 -9 -6
-20 2 -11 -1 -20 -6 -20 -6 0 -7 -4 -4 -10 3 -5 2 -10 -4 -10 -6 0 -8 -7 -5
-15 4 -8 2 -21 -4 -28 -5 -6 -8 -20 -7 -29 2 -10 0 -18 -4 -18 -4 0 -8 -6 -8
-12 -3 -53 -17 -124 -27 -130 -8 -5 -7 -8 2 -8 8 0 10 -5 6 -12 -5 -7 -9 -32
-10 -56 -2 -25 -5 -50 -8 -58 -3 -7 -1 -16 5 -19 5 -4 6 -11 3 -17 -11 -17
-13 -108 -2 -102 6 4 7 0 1 -12 -5 -11 -8 -28 -7 -39 1 -11 4 -52 7 -91 2 -40
7 -76 10 -81 3 -5 7 -28 8 -51 2 -23 6 -42 10 -42 4 0 6 -11 4 -25 -1 -14 1
-25 5 -25 4 0 7 -10 6 -22 -1 -13 4 -34 11 -47 6 -14 10 -28 7 -33 -3 -4 2
-18 11 -31 8 -13 12 -27 8 -31 -4 -4 -1 -11 6 -15 7 -5 14 -20 14 -35 0 -14 6
-31 13 -37 8 -6 11 -15 8 -20 -3 -5 0 -9 6 -9 6 0 8 -5 5 -10 -3 -6 -2 -10 4
-10 6 0 8 -7 5 -15 -4 -8 -2 -15 4 -15 6 0 16 -16 22 -35 6 -19 14 -35 16 -35
9 0 49 25 56 35 4 6 8 6 8 1 0 -5 8 -2 18 6 9 9 26 18 37 20 11 2 19 10 17 17
-1 7 2 10 8 6 6 -4 18 -1 27 7 14 11 16 11 9 -2 -4 -8 0 -6 8 4 9 11 16 16 16
10 0 -5 3 -5 8 1 12 16 52 36 62 30 5 -3 15 3 22 12 7 10 20 19 28 21 8 2 18
9 22 15 4 7 8 8 8 4 0 -4 25 6 55 23 49 27 57 29 70 16 8 -8 15 -19 15 -25 0
-6 16 -31 35 -57 19 -25 33 -50 29 -55 -3 -5 2 -9 10 -9 9 0 16 -4 16 -8 0
-18 135 -164 144 -155 2 2 7 -5 11 -16 3 -12 13 -21 21 -21 8 0 14 -4 14 -10
0 -5 7 -10 15 -10 8 0 19 -9 25 -20 6 -11 15 -20 21 -20 10 0 25 -11 61 -45
11 -11 18 -14 13 -7 -4 8 11 2 33 -13 23 -15 46 -24 53 -19 7 4 10 3 6 -3 -4
-6 4 -14 18 -17 15 -4 23 -11 19 -17 -4 -7 1 -9 15 -4 11 3 21 3 21 -2 0 -11
88 -41 148 -50 17 -3 32 -9 32 -15 0 -5 4 -7 8 -4 4 2 14 1 22 -4 11 -7 11
-11 1 -23 -9 -12 -9 -16 1 -20 10 -4 10 -6 1 -6 -7 -1 -13 -14 -13 -30 0 -17
-5 -33 -10 -36 -6 -4 -8 -11 -5 -16 3 -5 -1 -37 -9 -71 -21 -85 -28 -119 -29
-145 -1 -13 -4 -23 -7 -23 -4 0 -6 -10 -5 -23 1 -12 -1 -26 -5 -32 -11 -15
-19 -80 -12 -91 4 -6 17 -10 30 -11 12 0 23 -2 25 -3 38 -29 518 -28 553 1 8
7 14 6 17 -3 4 -9 8 -10 14 -2 4 6 15 12 23 12 8 1 31 4 50 8 19 3 41 6 48 7
6 0 12 4 12 9 0 5 9 4 20 -2 15 -8 20 -8 18 1 -3 10 10 16 52 23 8 1 25 7 36
14 12 6 24 9 27 6 3 -3 17 2 31 11 14 10 26 14 26 10 0 -3 7 1 16 9 8 9 19 14
24 11 5 -3 11 -1 15 5 4 6 11 8 16 5 5 -4 9 2 9 12 0 14 2 15 9 5 7 -11 13 -9
31 10 13 12 19 16 15 9 -5 -9 4 -6 22 7 17 12 33 19 37 15 3 -3 6 -2 6 4 0 6
18 18 40 27 22 9 40 20 40 26 0 5 7 10 15 10 9 0 18 7 21 15 4 8 9 13 14 10 4
-2 16 3 26 13 10 9 37 30 59 47 21 16 47 36 56 45 59 53 78 68 84 62 3 -4 3 2
-1 11 -3 10 -3 17 2 15 13 -4 64 43 58 54 -3 4 2 8 10 8 8 0 18 9 21 20 4 11
10 18 15 15 4 -2 15 10 23 28 9 17 18 31 21 30 4 -2 6 0 5 4 0 3 6 10 15 15 9
5 14 13 11 18 -3 4 2 10 10 14 8 3 15 10 15 15 0 6 11 22 25 37 13 14 22 30
19 35 -3 5 0 9 6 9 6 0 16 12 23 28 6 15 14 29 17 32 14 11 69 123 65 130 -3
4 2 11 11 14 8 3 12 10 9 16 -3 5 -1 10 6 10 7 0 9 3 6 7 -4 3 1 15 10 26 10
12 12 17 4 12 -9 -5 -12 -3 -9 6 3 8 10 13 16 12 6 -2 9 4 5 12 -3 9 3 25 13
37 12 14 14 18 4 13 -13 -8 -13 -7 -1 8 7 9 10 17 6 17 -4 0 -2 6 4 13 6 8 8
17 4 20 -3 4 -2 7 3 7 5 0 11 8 12 18 2 22 6 37 21 90 6 23 9 48 5 54 -4 6 -3
8 3 5 6 -4 10 5 11 21 1 15 4 38 8 52 3 14 6 34 5 45 0 10 5 26 12 34 7 9 8
12 1 8 -7 -4 -11 4 -10 23 1 17 3 30 6 30 9 0 5 244 -4 259 -6 10 -5 12 2 7 7
-4 12 -2 12 3 0 6 -4 11 -10 11 -5 0 -7 6 -4 14 3 8 1 24 -6 35 -6 12 -7 21
-1 21 6 0 6 12 0 33 -5 19 -11 47 -13 63 -2 16 -9 52 -16 79 -6 28 -13 55 -14
61 -1 7 -8 20 -16 30 -13 15 -13 16 -1 9 11 -6 13 -4 7 11 -4 10 -8 24 -9 29
-1 6 -4 12 -7 15 -12 12 -39 70 -30 65 6 -3 10 -2 10 4 0 5 -4 11 -10 13 -5 2
-11 13 -13 26 -2 13 -11 32 -20 42 -9 11 -15 20 -12 20 2 0 -1 13 -6 30 -6 16
-15 27 -21 24 -6 -4 -7 2 -3 17 4 13 4 21 0 17 -4 -4 -19 15 -32 42 -14 28
-29 50 -34 50 -6 0 -8 4 -5 9 3 5 -1 14 -9 21 -8 7 -15 17 -15 22 0 9 -10 23
-42 59 -10 10 -18 24 -18 29 0 6 -4 10 -10 10 -5 0 -10 9 -10 20 0 11 -3 19
-8 17 -7 -2 -52 39 -52 48 0 3 -22 28 -50 56 -27 28 -50 56 -50 62 0 6 -3 7
-6 4 -4 -3 -18 6 -33 21 -14 16 -34 31 -43 35 -10 3 -18 14 -18 22 0 9 -4 13
-10 10 -5 -3 -10 -1 -10 4 0 6 -7 11 -16 11 -8 0 -12 4 -9 10 3 5 -6 12 -20
16 -14 3 -30 15 -36 25 -5 11 -17 19 -25 19 -9 0 -12 5 -8 12 5 7 2 9 -9 5 -9
-3 -18 0 -21 9 -3 9 -10 13 -15 9 -6 -3 -13 0 -18 7 -10 16 -73 52 -73 42 0
-4 -9 3 -19 15 -11 12 -22 22 -25 22 -24 -3 -36 1 -31 9 3 6 -3 10 -14 10 -10
0 -22 6 -24 13 -4 9 -6 9 -6 -1 -1 -10 -5 -9 -17 3 -9 9 -22 14 -30 11 -7 -3
-18 2 -25 10 -7 8 -18 13 -26 10 -7 -3 -13 -1 -13 4 0 6 -9 10 -21 10 -11 0
-18 4 -15 8 4 7 -12 11 -56 13 -10 0 -18 3 -18 7 0 4 -8 9 -17 10 -41 4 -63 9
-69 15 -4 4 -25 7 -46 7 -21 0 -38 4 -38 9 0 6 -10 8 -22 6 -12 -3 -28 1 -37
8 -12 9 -13 9 -7 0 8 -14 -6 -18 -18 -6 -4 4 -22 8 -40 8 -18 1 -38 5 -44 9
-7 4 -12 1 -12 -6 0 -8 -3 -9 -8 -3 -9 12 -42 12 -61 1 -9 -6 -12 -5 -7 2 8
14 -36 12 -46 -3 -5 -7 -8 -7 -8 1 0 12 -118 13 -137 1 -6 -4 -13 -2 -15 5 -3
8 -7 8 -11 2z"/>
</g>
</svg>
